<svg xmlns="http://www.w3.org/2000/svg" width="96" height="128" viewBox="0 0 96 128">
  <defs>
    <linearGradient id="shirt" x1="0" x2="0" y1="0" y2="1">
      <stop offset="0" stop-color="#f2d16b"/>
      <stop offset="1" stop-color="#d8923b"/>
    </linearGradient>
    <filter id="shadow" x="-20%" y="-20%" width="140%" height="140%">
      <feDropShadow dx="0" dy="4" stdDeviation="3" flood-color="#000" flood-opacity="0.35"/>
    </filter>
  </defs>
  <g filter="url(#shadow)">
    <ellipse cx="48" cy="23" rx="16" ry="18" fill="#f0d0b0"/>
    <path d="M30 20c4-14 28-17 38-3 2 3 2 8 1 13-8-9-24-11-39-3z" fill="#1b1d27"/>
    <rect x="35" y="42" width="30" height="42" rx="8" fill="url(#shirt)"/>
    <path d="M37 50 18 67" stroke="#f0d0b0" stroke-width="10" stroke-linecap="round"/>
    <path d="M61 52 80 38" stroke="#f0d0b0" stroke-width="10" stroke-linecap="round"/>
    <path d="M41 80 26 112" stroke="#242631" stroke-width="12" stroke-linecap="round"/>
    <path d="M58 80 76 105" stroke="#242631" stroke-width="12" stroke-linecap="round"/>
    <path d="M21 114h20" stroke="#f6f2df" stroke-width="9" stroke-linecap="round"/>
    <path d="M70 108h18" stroke="#f6f2df" stroke-width="9" stroke-linecap="round"/>
    <circle cx="43" cy="25" r="2" fill="#1b1d27"/>
    <circle cx="56" cy="25" r="2" fill="#1b1d27"/>
    <path d="M43 33c4 3 9 3 13 0" stroke="#b56a58" stroke-width="2" stroke-linecap="round"/>
  </g>
</svg>
