<svg xmlns="http://www.w3.org/2000/svg" width="720" height="480" viewBox="0 0 720 480" role="img" aria-label="CoderDojo赤羽のチラシ">
  <defs>
    <filter id="paperShadow" x="-20%" y="-20%" width="140%" height="140%">
      <feDropShadow dx="0" dy="10" stdDeviation="12" flood-color="#000000" flood-opacity="0.32"/>
    </filter>
    <linearGradient id="paper" x1="0" y1="0" x2="1" y2="1">
      <stop offset="0" stop-color="#fff9e8"/>
      <stop offset="1" stop-color="#f2dfb6"/>
    </linearGradient>
  </defs>
  <rect width="720" height="480" fill="#2a2118"/>
  <rect x="0" y="0" width="720" height="480" fill="#4c3925" opacity="0.35"/>
  <path d="M0 390 C150 345 240 420 390 378 C520 342 610 368 720 330 L720 480 L0 480 Z" fill="#1b150f" opacity="0.28"/>
  <g transform="translate(94 46) rotate(-3)" filter="url(#paperShadow)">
    <path d="M20 0 H500 C516 0 528 12 528 28 V358 C528 374 516 386 500 386 H28 C12 386 0 374 0 358 V28 C0 12 8 0 20 0 Z" fill="url(#paper)"/>
    <path d="M20 0 H500 C516 0 528 12 528 28 V358 C528 374 516 386 500 386 H28 C12 386 0 374 0 358 V28 C0 12 8 0 20 0 Z" fill="none" stroke="#bb8f42" stroke-width="3"/>
    <path d="M36 32 H492 V112 H36 Z" fill="#2f5f98"/>
    <text x="264" y="83" text-anchor="middle" font-family="'Hiragino Sans', 'Yu Gothic', sans-serif" font-size="40" font-weight="700" fill="#fff7d5">CoderDojo 赤羽</text>
    <text x="264" y="152" text-anchor="middle" font-family="'Hiragino Sans', 'Yu Gothic', sans-serif" font-size="38" font-weight="700" fill="#9a2d2d">本日開催！</text>
    <text x="264" y="203" text-anchor="middle" font-family="'Hiragino Sans', 'Yu Gothic', sans-serif" font-size="28" font-weight="700" fill="#42301f">参加無料</text>
    <text x="264" y="247" text-anchor="middle" font-family="'Hiragino Sans', 'Yu Gothic', sans-serif" font-size="28" fill="#42301f">午前9時30分より</text>
    <g transform="translate(78 286)">
      <circle cx="24" cy="24" r="24" fill="#d85848"/>
      <path d="M16 25 L23 32 L36 16" fill="none" stroke="#fff5d8" stroke-width="6" stroke-linecap="round" stroke-linejoin="round"/>
      <text x="68" y="33" font-family="'Hiragino Sans', 'Yu Gothic', sans-serif" font-size="25" font-weight="700" fill="#2f5f98">自由制作・初心者歓迎</text>
    </g>
    <path d="M40 354 C104 338 172 370 242 350 C330 324 402 362 490 342" fill="none" stroke="#bb8f42" stroke-width="3" opacity="0.35"/>
  </g>
</svg>
